<?xml version="1.0" encoding="UTF-8" standalone="no"?>
<svg
   xmlns:dc="http://purl.org/dc/elements/1.1/"
   xmlns:cc="http://creativecommons.org/ns#"
   xmlns:rdf="http://www.w3.org/1999/02/22-rdf-syntax-ns#"
   xmlns:svg="http://www.w3.org/2000/svg"
   xmlns="http://www.w3.org/2000/svg"
   xmlns:sodipodi="http://sodipodi.sourceforge.net/DTD/sodipodi-0.dtd"
   xmlns:inkscape="http://www.inkscape.org/namespaces/inkscape"
   height="16"
   viewBox="0 0 16 16"
   width="16"
   version="1.1"
   id="svg140"
   sodipodi:docname="AnimatedAseprite.svg"
   inkscape:version="1.0.1 (3bc2e813f5, 2020-09-07)">
  <metadata
     id="metadata146">
    <rdf:RDF>
      <cc:Work
         rdf:about="">
        <dc:format>image/svg+xml</dc:format>
        <dc:type
           rdf:resource="http://purl.org/dc/dcmitype/StillImage" />
        <dc:title></dc:title>
      </cc:Work>
    </rdf:RDF>
  </metadata>
  <defs
     id="defs144" />
  <sodipodi:namedview
     pagecolor="#ffffff"
     bordercolor="#666666"
     borderopacity="1"
     objecttolerance="10"
     gridtolerance="10"
     guidetolerance="10"
     inkscape:pageopacity="0"
     inkscape:pageshadow="2"
     inkscape:window-width="1920"
     inkscape:window-height="1137"
     id="namedview142"
     showgrid="false"
     inkscape:zoom="45.254834"
     inkscape:cx="7.227266"
     inkscape:cy="8.1072299"
     inkscape:window-x="-8"
     inkscape:window-y="-8"
     inkscape:window-maximized="1"
     inkscape:current-layer="svg140"
     inkscape:document-rotation="0" />
  <path
     id="rect989"
     style="fill:#a5b7f3;fill-opacity:1;stroke:#a5efac;stroke-width:0"
     d="M 5 1 C 2.784 1 1 2.338 1 4 L 1 12 C 1 13.662 2.784 15 5 15 L 11 15 C 13.216 15 15 13.662 15 12 L 15 4 C 15 2.338 13.216 1 11 1 L 5 1 z M 10.232422 5.0488281 L 10.449219 5.0488281 C 10.670819 5.0488281 10.849609 5.2276187 10.849609 5.4492188 L 10.849609 8.8691406 C 10.849609 9.0907406 10.670819 9.2695313 10.449219 9.2695312 L 10.232422 9.2695312 C 10.010822 9.2695312 9.8339844 9.0907406 9.8339844 8.8691406 L 9.8339844 5.4492188 C 9.8339844 5.2276188 10.010822 5.0488281 10.232422 5.0488281 z M 5.4609375 5.0605469 L 5.6757812 5.0605469 C 5.8973812 5.0605469 6.0761719 5.2393375 6.0761719 5.4609375 L 6.0761719 8.8808594 C 6.0761719 9.1024594 5.8973813 9.28125 5.6757812 9.28125 L 5.4609375 9.28125 C 5.2393375 9.28125 5.0605469 9.1024594 5.0605469 8.8808594 L 5.0605469 5.4609375 C 5.0605469 5.2393375 5.2393375 5.0605469 5.4609375 5.0605469 z " />
  <path
     id="rect834-0-4"
     style="fill:#707da6;fill-opacity:1;stroke:#a5efac;stroke-width:0"
     d="M 2 9.7929688 L 2 11.429688 C 2 12.854323 3.1476279 14.001953 4.5722656 14.001953 L 11.429688 14.001953 C 12.854323 14.001953 14.001953 12.854324 14.001953 11.429688 L 14.001953 9.7929688 C 14.001953 11.217606 12.854323 12.365234 11.429688 12.365234 L 4.5722656 12.365234 C 3.1476279 12.365234 2 11.217606 2 9.7929688 z " />
  <path
     id="rect834"
     style="fill:#576283;fill-opacity:1;stroke:#a5efac;stroke-width:0"
     d="M 4 1 C 2.338 1 1 2.338 1 4 L 1 12 C 1 13.662 2.338 15 4 15 L 12 15 C 13.662 15 15 13.662 15 12 L 15 4 C 15 2.338 13.662 1 12 1 L 4 1 z M 4.5722656 2 L 11.429688 2 C 12.854325 2 14.001953 3.1476279 14.001953 4.5722656 L 14.001953 11.429688 C 14.001953 12.854325 12.854324 14.001953 11.429688 14.001953 L 4.5722656 14.001953 C 3.1476279 14.001953 2 12.854324 2 11.429688 L 2 4.5722656 C 2 3.1476279 3.1476279 2 4.5722656 2 z " />
</svg>
